<svg xmlns="http://www.w3.org/2000/svg" xmlns:xlink="http://www.w3.org/1999/xlink" width="102" height="69" viewBox="0 0 102 69"><defs><path id="cxlga" d="M1153.42 645.86a5.1 5.1 0 0 1 3.7-4.9v2.54a1.39 1.39 0 1 0 2.77 0v-2.53a5.1 5.1 0 1 1-6.47 4.89zm9.82 6.7a1.39 1.39 0 1 0 1.97-1.96l-.25-.25a7.82 7.82 0 0 0 1.28-3.1h.36a1.39 1.39 0 1 0 0-2.78h-.36a7.82 7.82 0 0 0-1.28-3.1l.25-.25a1.39 1.39 0 1 0-1.97-1.97l-.25.26a7.82 7.82 0 0 0-3.1-1.3v-.35a1.39 1.39 0 1 0-2.78 0v.36c-1.13.2-2.18.65-3.1 1.29l-.25-.26a1.39 1.39 0 0 0-1.96 1.97l.25.25a7.82 7.82 0 0 0-1.29 3.1h-.35a1.39 1.39 0 1 0 0 2.78h.35c.2 1.13.65 2.19 1.29 3.1l-.25.25a1.39 1.39 0 1 0 1.96 1.97l.26-.26a7.82 7.82 0 0 0 3.1 1.29v.35a1.39 1.39 0 1 0 2.77 0v-.35a7.82 7.82 0 0 0 3.1-1.29zm-7.41-39.4a1.39 1.39 0 1 0 0-2.78h-1.62v-1h8.59v1h-1.62a1.39 1.39 0 1 0 0 2.78h1.62v1h-.5a1.39 1.39 0 1 0 0 2.77h.5v1h-1.62a1.39 1.39 0 1 0 0 2.77h1.62v.99h-.5a1.39 1.39 0 1 0 0 2.78h.5v1.06h-1.62a1.39 1.39 0 1 0 0 2.78h1.62v1h-8.59v-1h1.62a1.39 1.39 0 1 0 0-2.78h-1.62v-1.06h.5a1.39 1.39 0 1 0 0-2.78h-.5v-.99h1.62a1.39 1.39 0 1 0 0-2.78h-1.62v-.99h.5a1.39 1.39 0 1 0 0-2.78h-.5v-.99zm-3 18.94h11.35c.77 0 1.4-.62 1.4-1.4v-22.72c0-.76-.63-1.39-1.4-1.39h-11.36c-.77 0-1.39.63-1.39 1.4v22.72c0 .77.62 1.39 1.4 1.39zm-12.18-6a1.5 1.5 0 0 1-2.15 0 1.5 1.5 0 0 1 0-2.14 1.5 1.5 0 0 1 2.15 0 1.5 1.5 0 0 1 0 2.14zm-1.08-5.37a4.27 4.27 0 0 0-3.04 7.34 4.27 4.27 0 0 0 6.08 0 4.27 4.27 0 0 0 0-6.08 4.27 4.27 0 0 0-3.04-1.26zm0-8.58a1.52 1.52 0 1 1 0 3.04 1.52 1.52 0 0 1 0-3.04zm0 5.81a4.3 4.3 0 1 0-.01-8.6 4.3 4.3 0 0 0 0 8.6zm-.5 34.08v-4.8h1v4.8zm2.39-7.57h-.5V632.6a1.39 1.39 0 1 0-2.78 0v11.87h-.5c-.78 0-1.4.62-1.4 1.39v7.57c0 .77.62 1.4 1.4 1.4h.5v.5a1.39 1.39 0 1 0 2.78 0v-.5h.5c.77 0 1.39-.63 1.39-1.4v-7.57c0-.77-.62-1.4-1.4-1.4zm5.68-39.77c-.77 0-1.39.62-1.39 1.39v53.03a1.39 1.39 0 1 0 2.78 0v-53.03c0-.77-.62-1.39-1.39-1.39zm-22.72 21.85a1.52 1.52 0 1 1 0-3.04 1.52 1.52 0 0 1 0 3.04zm0-5.82a4.3 4.3 0 1 0 .01 8.6 4.3 4.3 0 0 0 0-8.6zm-1.08-8.14a1.51 1.51 0 0 1 2.6 1.07 1.52 1.52 0 1 1-2.6-1.07zm1.08 5.37a4.29 4.29 0 0 0 3.03-7.33 4.3 4.3 0 1 0-3.03 7.33zm-.5 26.5v-4.79h1v4.8zm2.39-7.57h-.5v-4.29a1.39 1.39 0 1 0-2.78 0v4.3h-.5c-.78 0-1.4.62-1.4 1.38v7.58c0 .77.62 1.39 1.4 1.39h.5v8.08a1.39 1.39 0 1 0 2.77 0v-8.08h.5c.78 0 1.4-.62 1.4-1.4v-7.57c0-.76-.62-1.39-1.4-1.39zm5.68-32.19c-.77 0-1.39.62-1.39 1.39v53.03a1.39 1.39 0 1 0 2.78 0v-53.03c0-.77-.62-1.39-1.39-1.39zm-22.72 21.85a1.52 1.52 0 1 1 0-3.04 1.52 1.52 0 0 1 0 3.04zm0-5.82a4.3 4.3 0 1 0 .01 8.6 4.3 4.3 0 0 0 0-8.6zm-1.08-8.14a1.5 1.5 0 0 1 2.15 0 1.52 1.52 0 1 1-2.15 0zm1.08 5.37a4.29 4.29 0 0 0 3.03-7.34 4.27 4.27 0 0 0-6.07 0 4.27 4.27 0 0 0 0 6.08 4.28 4.28 0 0 0 3.04 1.26zm-.5 22.72v-4.8h1v4.8zm2.39-7.57h-.5v-.5a1.39 1.39 0 0 0-2.78 0v.5h-.5c-.78 0-1.4.62-1.4 1.39v7.57c0 .77.62 1.4 1.4 1.4h.5v11.86a1.39 1.39 0 0 0 2.77 0v-11.87h.5c.78 0 1.4-.62 1.4-1.39v-7.57c0-.77-.62-1.4-1.4-1.4zm5.68-28.41c-.77 0-1.39.62-1.39 1.39v53.03a1.39 1.39 0 0 0 2.78 0v-53.03c0-.77-.62-1.39-1.39-1.39zm-21.64 21.4a1.5 1.5 0 0 1-2.15 0 1.52 1.52 0 1 1 2.15 0zm-4.12-4.11a4.3 4.3 0 1 0 6.1 6.08 4.3 4.3 0 0 0-6.1-6.08zm3.04-9.84a1.52 1.52 0 1 1 0 3.04 1.52 1.52 0 0 1 0-3.04zm0 5.81a4.3 4.3 0 1 0-.01-8.6 4.3 4.3 0 0 0 0 8.6zm-.5 32.2v-4.8h1v4.8zm2.39-7.58h-.5v-9.98a1.39 1.39 0 0 0-2.78 0v9.98h-.5c-.78 0-1.4.62-1.4 1.39v7.57c0 .77.62 1.39 1.4 1.39h.5v2.4a1.39 1.39 0 0 0 2.77 0v-2.4h.5c.78 0 1.4-.62 1.4-1.39v-7.57c0-.77-.62-1.4-1.4-1.4zm5.68-37.88c-.77 0-1.39.62-1.39 1.39v53.03a1.39 1.39 0 0 0 2.78 0v-53.03c0-.77-.62-1.39-1.39-1.39zm-21.64 21.4a1.5 1.5 0 0 1-2.15 0 1.52 1.52 0 1 1 2.15 0zm-4.12-4.11a4.3 4.3 0 1 0 6.1 6.08 4.3 4.3 0 0 0-6.1-6.08zm3.03-9.84a1.52 1.52 0 1 1 0 3.04 1.52 1.52 0 0 1 0-3.04zm0 5.81a4.3 4.3 0 1 0 0-8.6 4.3 4.3 0 0 0 0 8.6zm-.5 28.4v-4.8h1v4.8zm2.4-7.57h-.5v-6.19a1.39 1.39 0 0 0-2.78 0v6.19h-.5c-.78 0-1.4.62-1.4 1.39v7.57c0 .77.62 1.4 1.4 1.4h.5v6.18a1.39 1.39 0 0 0 2.77 0v-6.19h.5c.78 0 1.4-.62 1.4-1.39v-7.57c0-.77-.62-1.4-1.4-1.4zm5.68-34.09c-.77 0-1.39.62-1.39 1.39v53.03a1.39 1.39 0 0 0 2.78 0v-53.03c0-.77-.62-1.39-1.39-1.39zm-12.26 62.5l-.96-2.9h81.4a1.39 1.39 0 1 0 0-2.79h-81.94V603.7h95.7v57.82h-3.93a1.39 1.39 0 1 0 0 2.78h3.39l-.97 2.9zm96.93-3.96l.01-.04.02-.07v-.08l.01-.04v-60.7c0-.78-.62-1.4-1.38-1.4h-98.48c-.77 0-1.39.62-1.39 1.4v60.74l.02.08.01.07.01.04.03.1 1.9 5.68c.18.57.72.95 1.31.95h94.7c.6 0 1.12-.38 1.31-.95l1.9-5.68.02-.1z"/></defs><g><g transform="translate(-1070 -601)"><use fill="#fff" xlink:href="#cxlga"/></g></g></svg>