<svg xmlns="http://www.w3.org/2000/svg" xmlns:xlink="http://www.w3.org/1999/xlink" width="91" height="82" viewBox="0 0 91 82"><defs><path id="2sxba" d="M270.5 635.07a1.72 1.72 0 1 1 3.45 0 1.72 1.72 0 0 1-3.44 0zm-65.48 8.15a1.45 1.45 0 0 1 0-2.9h15.77a1.45 1.45 0 0 1 0 2.9zm29.09 7.84a10.71 10.71 0 0 1-.07-6.29 1.45 1.45 0 0 1 2.78.82 7.8 7.8 0 0 0 3.93 9.19 7.83 7.83 0 0 0 10.6-3.38 7.8 7.8 0 0 0 .5-6 7.8 7.8 0 0 0-3.88-4.59 7.8 7.8 0 0 0-8.32.7 1.45 1.45 0 1 1-1.74-2.32 10.7 10.7 0 0 1 11.39-.95 10.7 10.7 0 0 1 5.31 6.29c.88 2.73.63 5.64-.69 8.2a10.68 10.68 0 0 1-9.55 5.82c-4.56 0-8.8-2.92-10.26-7.49zm-26.86 11.66c-.3-.74.06-1.58.8-1.88l15.03-5.99a1.45 1.45 0 1 1 1.08 2.7l-15.03 5.98a1.45 1.45 0 0 1-1.88-.81zm49.89-36.38l8.7-2.75v-12.44h-8.7zm-9.86 3.14l6.96-2.22v-16.11h-6.96zm21.47 5.97a3.54 3.54 0 0 0 2.78 3.39 3.5 3.5 0 0 0 4.18-3.4v-24.3h-6.96zm-28.31-.74a13.8 13.8 0 0 0-9.09 17.23 13.91 13.91 0 0 0 13 9.51c.7 0 1.38-.04 2.05-.15 7.42-1.18 12.89-8.9 11.33-16.3-1.35-6.4-7.26-10.83-13.53-10.83-1.25 0-2.52.17-3.76.54zm-11.85 18.11a16.58 16.58 0 0 1 10.74-20.8l5.05-1.61v-19.26h-17.97a1.45 1.45 0 1 1 0-2.9h63.92v-5.9H205.9v5.9h14.72a1.45 1.45 0 0 1 0 2.9h-16.17c-.8 0-1.45-.65-1.45-1.45v-8.8c0-.81.65-1.46 1.45-1.46h87.33c.8 0 1.45.65 1.45 1.45v8.8c0 .8-.65 1.46-1.45 1.46h-13.17v14.38a16.57 16.57 0 0 1-3.63 29.88l-3.86 1.23a1.45 1.45 0 1 1-.88-2.76l3.86-1.23a13.67 13.67 0 0 0 4.5-23.58v6.38c0 3.4-2.68 6.2-6.04 6.37-3.6.18-6.7-2.8-6.7-6.37v-8.85l-.06.02-16.66 5.31a16.47 16.47 0 0 1 9.77 7.96l.01.02a16.8 16.8 0 0 1 .16 15.48c-.48.92-1.03 1.78-1.65 2.57l7.02-2.23a1.44 1.44 0 1 1 .88 2.76l-15.93 5.08a16.5 16.5 0 0 1-20.8-10.74zm-8.78 27.78a1.45 1.45 0 0 1-.01-2.05l11.07-11.22a1.45 1.45 0 0 1 2.07 2.03l-11.08 11.23a1.45 1.45 0 0 1-2.05.01z"/></defs><g><g transform="translate(-203 -599)"><use fill="#fff" xlink:href="#2sxba"/></g></g></svg>