<svg xmlns="http://www.w3.org/2000/svg" xmlns:xlink="http://www.w3.org/1999/xlink" width="104" height="79" viewBox="0 0 104 79"><defs><path id="lb55a" d="M585.78 670.98h-95.6v-7.47h95.6zM576.82 600v3.7h-78.44V600zm1.2 57.2l4 2.83h-88.47l3.68-2.83zm-76.47-28h-3.17v-22.03h3.17zm3.47-7.07v-14.96h4.92zm2.14 4.64l6.44-19.6h5.37c-.33 6.39-6.97 14.5-11.81 19.6zm45.6-19.6a15 15 0 0 0 .48 3.13h-31.27c.27-1.06.44-2.1.48-3.13zm8.85 0l6.44 19.62c-5.18-5.5-11.48-13.55-11.82-19.62zm8.57 14.96l-4.91-14.96h4.91zm6.64 7.08h-3.16v-22.04h3.16zm-3.16 7.56h3.16v16.95h-3.16zm-3.48 5.1v11.86h-4.83zm6.64-8.57h-3.16v-.61h3.16zm-63.2 20.43l-8.27-20.27c2.9-2.67 11.65-11.2 15.39-19.68h33.73c3.74 8.48 12.5 17 15.38 19.68l-8.26 20.26zm-8.6-11.87l4.84 11.87h-4.84zm-6.64-5.09h3.17v16.95h-3.17zm0-4.08h3.17v.6h-3.17zm90.14 27.66l-8.22-5.79v-58.04h-85.4v58.09l-7.53 5.78c-.4.32-.68.82-.68 1.38v10.95c0 .96.78 1.74 1.74 1.74h99.09c.96 0 1.74-.78 1.74-1.74V661.8c0-.56-.26-1.1-.74-1.44z"/></defs><g><g transform="translate(-486 -596)"><use fill="#fff" xlink:href="#lb55a"/></g></g></svg>