<svg xmlns="http://www.w3.org/2000/svg" xmlns:xlink="http://www.w3.org/1999/xlink" width="46" height="80" viewBox="0 0 46 80"><defs><path id="6ixha" d="M813.22 602.12a1.32 1.32 0 0 0 0-2.63h-1.32a1.32 1.32 0 0 0 0 2.63zm32.88 0a1.32 1.32 0 0 0 0-2.63h-1.32a1.32 1.32 0 0 0 0 2.63zm-9.33 13.15a7.88 7.88 0 0 0-15.54 0h-5.31A13.17 13.17 0 0 1 829 603.43c6.75 0 12.4 5.12 13.09 11.84zm-7.77-3.95a5.26 5.26 0 1 1 0 10.52 5.26 5.26 0 0 1 0-10.52zm-13.08 6.58h5.3a7.88 7.88 0 0 0 15.55 0h5.32A13.17 13.17 0 0 1 829 629.74c-6.75 0-12.4-5.12-13.08-11.84zM829 632.37a15.78 15.78 0 1 0 0-31.57 15.78 15.78 0 0 0 0 31.57zm7.77 19.73a7.88 7.88 0 0 0-15.54 0h-5.31A13.17 13.17 0 0 1 829 640.26c6.75.01 12.4 5.12 13.09 11.84zm-7.77-3.95a5.26 5.26 0 1 1 0 10.53 5.26 5.26 0 0 1 0-10.53zm-13.08 6.58h5.3a7.88 7.88 0 0 0 15.55 0h5.32A13.17 13.17 0 0 1 829 666.57c-6.75 0-12.4-5.12-13.08-11.84zM829 669.2a15.78 15.78 0 1 0 0-31.57 15.78 15.78 0 0 0 0 31.57zm-15.78 1.32a1.32 1.32 0 0 0 0-2.63h-1.32a1.32 1.32 0 0 0 0 2.63zm32.88 0a1.32 1.32 0 0 0 0-2.63h-1.32a1.32 1.32 0 0 0 0 2.63zm-35.51-72.35h36.83c.72 0 1.31.59 1.31 1.32v71.03c0 .72-.59 1.31-1.31 1.31h-36.83c-.73 0-1.32-.59-1.32-1.31v-71.03c0-.73.59-1.32 1.32-1.32zm36.83 76.3a3.95 3.95 0 0 0 3.94-3.95v-71.03a3.95 3.95 0 0 0-3.94-3.95h-36.83a3.95 3.95 0 0 0-3.95 3.95v71.03a3.95 3.95 0 0 0 3.95 3.94z"/></defs><g><g transform="translate(-806 -595)"><use fill="#fff" xlink:href="#6ixha"/></g></g></svg>