<svg xmlns="http://www.w3.org/2000/svg" xmlns:xlink="http://www.w3.org/1999/xlink" width="21" height="20" viewBox="0 0 21 20"><defs><path id="tswva" d="M190.07 362c0-5.03 5.03-10.05 10.05-10.05 5.03 0 10.05 5.02 10.05 10.05 0 5.02-5.02 10.05-10.05 10.05-5.02 0-10.05-5.03-10.05-10.05z"/><path id="tswvb" d="M199.33 359.62v1.09h-.8v1.33h.8V366h1.64v-3.96h1.1s.1-.64.16-1.34h-1.25v-.91c0-.14.18-.32.36-.32h.89v-1.39H201c-1.72 0-1.68 1.34-1.68 1.54z"/></defs><g><g transform="translate(-190 -352)"><use fill="#fff" xlink:href="#tswva"/></g><g transform="translate(-190 -352)"><use xlink:href="#tswvb"/></g></g></svg>