<svg xmlns="http://www.w3.org/2000/svg" xmlns:xlink="http://www.w3.org/1999/xlink" width="21" height="20" viewBox="0 0 21 20"><defs><path id="zlasa" d="M444.25 70c0-5.03 5.02-10.05 10.05-10.05 5.02 0 10.05 5.02 10.05 10.05 0 5.03-5.03 10.05-10.05 10.05-5.03 0-10.05-5.02-10.05-10.05z"/><path id="zlasb" d="M453.5 67.62v1.09h-.8v1.33h.8V74h1.65v-3.96h1.1s.1-.64.15-1.34h-1.25v-.91c0-.14.18-.32.36-.32h.9v-1.39h-1.22c-1.72 0-1.68 1.34-1.68 1.54z"/></defs><g><g transform="translate(-444 -60)"><use fill="#10121a" xlink:href="#zlasa"/></g><g transform="translate(-444 -60)"><g><use fill="#fff" xlink:href="#zlasb"/></g></g></g></svg>