<svg xmlns="http://www.w3.org/2000/svg" xmlns:xlink="http://www.w3.org/1999/xlink" width="21" height="20" viewBox="0 0 21 20"><defs><path id="v99ga" d="M136.39 362c0-5.03 5.02-10.05 10.05-10.05 5.02 0 10.05 5.02 10.05 10.05 0 5.02-5.03 10.05-10.05 10.05-5.03 0-10.05-5.03-10.05-10.05z"/><path id="v99gb" d="M151.25 359.42c-.36.16-.74.26-1.14.31.41-.24.72-.63.87-1.09-.38.23-.8.39-1.25.48a1.97 1.97 0 0 0-3.42 1.35c0 .15.02.3.06.45a5.6 5.6 0 0 1-4.07-2.06 1.97 1.97 0 0 0 .61 2.63c-.32-.01-.63-.1-.9-.25v.03c0 .95.69 1.75 1.59 1.93a2 2 0 0 1-.9.03c.26.79.99 1.36 1.85 1.37a3.96 3.96 0 0 1-2.92.82 5.57 5.57 0 0 0 8.64-4.73l-.01-.25c.39-.28.72-.62.99-1.02z"/></defs><g><g transform="translate(-136 -352)"><use fill="#fff" xlink:href="#v99ga"/></g><g transform="translate(-136 -352)"><use xlink:href="#v99gb"/></g></g></svg>