<svg xmlns="http://www.w3.org/2000/svg" xmlns:xlink="http://www.w3.org/1999/xlink" width="20" height="20" viewBox="0 0 20 20"><defs><path id="fx1sa" d="M364 70c0-5.03 5.03-10.05 10.05-10.05 5.03 0 10.05 5.02 10.05 10.05 0 5.03-5.02 10.05-10.05 10.05-5.02 0-10.05-5.02-10.05-10.05z"/><path id="fx1sb" d="M378.18 72.4c0 .95-.78 1.73-1.73 1.73h-4.15c-.96 0-1.74-.78-1.74-1.73v-4.15c0-.96.78-1.74 1.74-1.74h4.15c.95 0 1.73.78 1.73 1.74v4.15zm-1.73-6.7h-4.15a2.56 2.56 0 0 0-2.56 2.55v4.15c0 1.4 1.15 2.55 2.56 2.55h4.15c1.4 0 2.55-1.14 2.55-2.55v-4.15c0-1.41-1.14-2.56-2.55-2.56z"/><path id="fx1sc" d="M374.37 71.89a1.57 1.57 0 1 1 0-3.14 1.57 1.57 0 0 1 0 3.14zm0-3.95a2.39 2.39 0 1 0 0 4.77 2.39 2.39 0 0 0 0-4.77z"/><path id="fx1sd" d="M376.86 67.24a.6.6 0 0 0-.6.6.6.6 0 0 0 .6.6.6.6 0 0 0 .43-1.03.6.6 0 0 0-.43-.17z"/></defs><g><g transform="translate(-364 -60)"><use fill="#10121a" xlink:href="#fx1sa"/></g><g transform="translate(-364 -60)"><g><use fill="#fff" xlink:href="#fx1sb"/></g><g><use fill="#fff" xlink:href="#fx1sc"/></g><g><use fill="#fff" xlink:href="#fx1sd"/></g></g></g></svg>