<svg id="Group_294" data-name="Group 294" xmlns="http://www.w3.org/2000/svg" viewBox="0 0 190 111">
  <defs>
    <style>
      .cls-1 {
        fill: #10121a;
      }

      .cls-2 {
        fill: #fff;
        fill-rule: evenodd;
      }

      .cls-3 {
        fill: #005cff;
        font-size: 17px;
        font-family: Stem-Bold, Stem;
        font-weight: 700;
      }
    </style>
  </defs>
  <g id="Group_293" data-name="Group 293">
    <g id="Group_292" data-name="Group 292">
      <rect id="Rectangle_173" data-name="Rectangle 173" class="cls-1" width="190" height="111"/>
      <path id="Path_101" data-name="Path 101" class="cls-2" d="M98.7,62.388h15.361V71.62H98.7Zm-59.825,0H1.5V71.62H38.877Zm45.5,0h2.707l.978,5.17,1.429-5.17H92.2l1.429,5.17.978-5.17h2.707l-2.031,9.25h-2.8l-1.617-5.81-1.617,5.81h-2.8Zm-34.162,0h2.858v3.234h3.121V62.388h2.877v9.25H56.193V67.9H53.072v3.741H50.214Zm-9.833,6.167,2.726-.169a2.087,2.087,0,0,0,.357,1.015,1.514,1.514,0,0,0,1.26.564,1.4,1.4,0,0,0,.94-.282A.846.846,0,0,0,46,69.025a.791.791,0,0,0-.32-.639,3.407,3.407,0,0,0-1.466-.526,6.048,6.048,0,0,1-2.67-1.128,2.23,2.23,0,0,1-.808-1.786,2.43,2.43,0,0,1,.414-1.354,2.9,2.9,0,0,1,1.241-1,5.759,5.759,0,0,1,2.275-.357,4.715,4.715,0,0,1,2.707.658,2.83,2.83,0,0,1,1.109,2.087l-2.689.15a1.472,1.472,0,0,0-.451-.9,1.438,1.438,0,0,0-.94-.282,1.2,1.2,0,0,0-.752.207.631.631,0,0,0-.244.508.518.518,0,0,0,.207.395,2.284,2.284,0,0,0,.959.338,12.739,12.739,0,0,1,2.689.808,2.92,2.92,0,0,1,1.184,1.015,2.639,2.639,0,0,1,.376,1.372,2.978,2.978,0,0,1-.489,1.636,3.058,3.058,0,0,1-1.372,1.147,5.449,5.449,0,0,1-2.219.395,4.632,4.632,0,0,1-3.271-.9A3.293,3.293,0,0,1,40.381,68.555Zm61.2-29.95V49.773h1.542a6.753,6.753,0,0,0,2.82-.432,2.965,2.965,0,0,0,1.316-1.523,9.614,9.614,0,0,0,.47-3.553c0-2.162-.357-3.647-1.053-4.437a4.469,4.469,0,0,0-3.516-1.2h-1.579ZM95.261,33.98h9.382a11.088,11.088,0,0,1,4.475.752,7.324,7.324,0,0,1,2.82,2.162,9.2,9.2,0,0,1,1.617,3.271,14.987,14.987,0,0,1,.508,3.967,13.494,13.494,0,0,1-.752,5.076,8.264,8.264,0,0,1-2.068,3.027,6.948,6.948,0,0,1-2.839,1.636,14.487,14.487,0,0,1-3.76.564H95.261V33.98Zm-52.925,0h6.6l4.606,14.7,4.531-14.7h6.411L56.907,54.417H50.063ZM34.985,46.633l-2.256-7.351-2.237,7.351ZM36.3,51.051H29.1l-1,3.365H21.655L29.326,33.98h6.881L43.9,54.417H37.3ZM2.59,33.98H20.452v4.08L9,50.036H20.884v4.4H1.5v-4.23L12.837,38.379H2.59ZM72.023,68.875a.768.768,0,1,0-.545-.94A.755.755,0,0,0,72.023,68.875Zm-.376,1.41a2.228,2.228,0,1,0-1.579-2.726A2.232,2.232,0,0,0,71.647,70.285Zm-1.278,4.757a7.153,7.153,0,1,0-5.058-8.761A7.155,7.155,0,0,0,70.369,75.042Zm-.207.808a7.981,7.981,0,1,0-5.64-9.777A7.99,7.99,0,0,0,70.162,75.85Zm-.094.357a8.35,8.35,0,1,0-5.9-10.228A8.361,8.361,0,0,0,70.068,76.207Zm1.5,1.222a7.475,7.475,0,0,0,1.3,0l1.09,2.181a12.378,12.378,0,0,0,2.482-.658l-.132-2.425a8.089,8.089,0,0,0,1.109-.639l2.031,1.335a12.726,12.726,0,0,0,1.824-1.8l-1.335-2.031a9.388,9.388,0,0,0,.639-1.109L83,72.409c.15-.395.282-.808.395-1.222a10.009,10.009,0,0,0,.263-1.26l-2.181-1.09a7.468,7.468,0,0,0,0-1.3l2.181-1.09A12.719,12.719,0,0,0,83,63.968l-2.425.132a8.09,8.09,0,0,0-.639-1.109l1.335-2.031a12.724,12.724,0,0,0-1.8-1.824l-2.031,1.335a9.39,9.39,0,0,0-1.109-.639l.132-2.425c-.395-.15-.808-.282-1.222-.395a10.008,10.008,0,0,0-1.26-.263l-1.09,2.181a7.473,7.473,0,0,0-1.3,0L70.5,56.748a12.72,12.72,0,0,0-2.482.658l.132,2.425a8.092,8.092,0,0,0-1.109.639L65.01,59.136a12.724,12.724,0,0,0-1.824,1.8l1.335,2.031a9.386,9.386,0,0,0-.639,1.109l-2.425-.132c-.15.395-.282.808-.395,1.222a10.008,10.008,0,0,0-.263,1.26l2.181,1.09a7.473,7.473,0,0,0,0,1.3L60.8,69.909a12.378,12.378,0,0,0,.658,2.482l2.425-.132a10.648,10.648,0,0,0,.639,1.109L63.187,75.4a12.725,12.725,0,0,0,1.8,1.824l2.031-1.335a9.389,9.389,0,0,0,1.109.639L68,78.952c.395.15.808.282,1.222.395a10.006,10.006,0,0,0,1.26.263ZM78.6,45.148a.959.959,0,1,0-.959-.959A.951.951,0,0,0,78.6,45.148Zm0,1.8a2.745,2.745,0,1,0-2.745-2.745A2.736,2.736,0,0,0,78.6,46.953Zm0,6.073a8.818,8.818,0,1,0-8.818-8.818A8.818,8.818,0,0,0,78.6,53.025Zm0,1.034a9.852,9.852,0,1,0-9.852-9.852A9.861,9.861,0,0,0,78.6,54.059Zm0,.432a10.3,10.3,0,1,0-10.3-10.3A10.295,10.295,0,0,0,78.6,54.492Zm2.2.978a10.973,10.973,0,0,0,1.542-.414l2.012,2.237A14.668,14.668,0,0,0,87.1,55.714l-.94-2.858q.592-.536,1.128-1.128l2.858.94a13.7,13.7,0,0,0,1.579-2.745l-2.237-2.012A13.239,13.239,0,0,0,89.9,46.37l2.933-.62a14.835,14.835,0,0,0,.094-1.579,14.546,14.546,0,0,0-.094-1.579L89.9,41.97a10.971,10.971,0,0,0-.414-1.542l2.237-2.012a14.665,14.665,0,0,0-1.579-2.745l-2.858.94q-.536-.592-1.128-1.128l.94-2.858a13.7,13.7,0,0,0-2.745-1.579l-2.012,2.237a13.238,13.238,0,0,0-1.542-.414l-.62-2.877A14.829,14.829,0,0,0,78.6,29.9a14.54,14.54,0,0,0-1.579.094l-.62,2.933a10.972,10.972,0,0,0-1.542.414L72.85,31.1a14.667,14.667,0,0,0-2.745,1.579l.94,2.858q-.592.536-1.128,1.128l-2.858-.94a13.7,13.7,0,0,0-1.579,2.745l2.237,2.012a13.237,13.237,0,0,0-.414,1.542l-2.914.6a14.827,14.827,0,0,0-.094,1.579,14.538,14.538,0,0,0,.094,1.579l2.933.62a10.972,10.972,0,0,0,.414,1.542L65.5,49.961a14.667,14.667,0,0,0,1.579,2.745l2.858-.94q.536.592,1.128,1.128l-.94,2.858a13.7,13.7,0,0,0,2.745,1.579l2.012-2.237a13.234,13.234,0,0,0,1.542.414l.62,2.933a14.826,14.826,0,0,0,1.579.094A14.538,14.538,0,0,0,80.2,58.44Z" transform="translate(37.938 11.426)"/>
    </g>
  </g>
  <text id="_МЫ_ЗА_ШОУ" data-name="#МЫ ЗА ШОУ" class="cls-3" transform="translate(38 37)"><tspan x="0" y="0">#МЫ ЗА ШОУ</tspan></text>
</svg>
