<svg xmlns="http://www.w3.org/2000/svg" xmlns:xlink="http://www.w3.org/1999/xlink" width="21" height="20" viewBox="0 0 21 20"><defs><path id="f4rwa" d="M109.83 362c0-5.03 5.02-10.05 10.05-10.05 5.02 0 10.05 5.02 10.05 10.05 0 5.02-5.03 10.05-10.05 10.05-5.03 0-10.05-5.03-10.05-10.05z"/><path id="f4rwb" d="M124 364.4c0 .95-.77 1.73-1.72 1.73h-4.15c-.96 0-1.74-.78-1.74-1.73v-4.15c0-.96.78-1.74 1.74-1.74h4.15c.95 0 1.73.78 1.73 1.74v4.15zm-1.72-6.7h-4.15a2.56 2.56 0 0 0-2.56 2.55v4.15c0 1.4 1.15 2.55 2.56 2.55h4.15c1.4 0 2.55-1.14 2.55-2.55v-4.15c0-1.41-1.15-2.56-2.55-2.56z"/><path id="f4rwc" d="M120.2 363.89a1.57 1.57 0 1 1 0-3.14 1.57 1.57 0 0 1 0 3.14zm0-3.95a2.39 2.39 0 1 0 0 4.77 2.39 2.39 0 0 0 0-4.77z"/><path id="f4rwd" d="M122.69 359.24a.6.6 0 0 0-.6.6.6.6 0 0 0 .6.6.6.6 0 0 0 .43-1.03.6.6 0 0 0-.43-.17z"/></defs><g><g transform="translate(-109 -352)"><use fill="#fff" xlink:href="#f4rwa"/></g><g transform="translate(-109 -352)"><use xlink:href="#f4rwb"/></g><g transform="translate(-109 -352)"><use xlink:href="#f4rwc"/></g><g transform="translate(-109 -352)"><use xlink:href="#f4rwd"/></g></g></svg>