<svg xmlns="http://www.w3.org/2000/svg" xmlns:xlink="http://www.w3.org/1999/xlink" width="21" height="20" viewBox="0 0 21 20"><defs><path id="ewbea" d="M390.56 70c0-5.03 5.03-10.05 10.05-10.05 5.03 0 10.05 5.02 10.05 10.05 0 5.03-5.02 10.05-10.05 10.05-5.02 0-10.05-5.02-10.05-10.05z"/><path id="ewbeb" d="M405.42 67.42c-.35.16-.73.26-1.13.31.4-.24.72-.63.86-1.09-.38.23-.8.39-1.25.48a1.97 1.97 0 0 0-3.41 1.35c0 .15.01.3.05.45a5.6 5.6 0 0 1-4.07-2.06 1.97 1.97 0 0 0 .61 2.63c-.32-.01-.62-.1-.89-.25v.03c0 .95.68 1.75 1.58 1.93a2 2 0 0 1-.89.03c.25.79.98 1.36 1.84 1.37a3.96 3.96 0 0 1-2.92.82c.88.56 1.91.89 3.03.89 3.63 0 5.6-3 5.6-5.62v-.25c.39-.28.73-.62.99-1.02z"/></defs><g><g transform="translate(-390 -60)"><use fill="#10121a" xlink:href="#ewbea"/></g><g transform="translate(-390 -60)"><g><g><use fill="#fff" xlink:href="#ewbeb"/></g></g></g></g></svg>