<svg xmlns="http://www.w3.org/2000/svg" xmlns:xlink="http://www.w3.org/1999/xlink" width="20" height="20" viewBox="0 0 20 20"><defs><path id="x2haa" d="M162.95 362c0-5.03 5.02-10.05 10.05-10.05 5.02 0 10.05 5.02 10.05 10.05 0 5.02-5.03 10.05-10.05 10.05-5.03 0-10.05-5.03-10.05-10.05z"/><path id="x2hab" d="M174.43 362.24l-2.11 1.12a.32.32 0 0 1-.32 0 .33.33 0 0 1-.16-.29v-2.23c0-.11.06-.22.16-.28.1-.06.22-.06.32-.01l2.1 1.11c.11.06.18.17.18.3 0 .11-.07.23-.17.28zm3.2-3.21c-.36-.44-1.03-.62-2.3-.62h-4.65c-1.31 0-2 .19-2.35.66-.36.45-.36 1.12-.36 2.05v1.76c0 1.8.42 2.7 2.7 2.7h4.65c1.11 0 1.73-.15 2.12-.53.41-.4.58-1.05.58-2.17v-1.76c0-.98-.02-1.65-.39-2.1z"/></defs><g><g transform="translate(-163 -352)"><use fill="#fff" xlink:href="#x2haa"/></g><g transform="translate(-163 -352)"><use xlink:href="#x2hab"/></g></g></svg>