<svg xmlns="http://www.w3.org/2000/svg" xmlns:xlink="http://www.w3.org/1999/xlink" width="21" height="20" viewBox="0 0 21 20"><defs><path id="k7nna" d="M417.12 70c0-5.03 5.03-10.05 10.05-10.05 5.03 0 10.05 5.02 10.05 10.05 0 5.03-5.02 10.05-10.05 10.05-5.02 0-10.05-5.02-10.05-10.05z"/><path id="k7nnb" d="M428.6 70.24l-2.1 1.12a.32.32 0 0 1-.33 0 .33.33 0 0 1-.15-.29v-2.23c0-.11.06-.22.15-.28.1-.06.22-.06.32-.01l2.11 1.11c.1.06.17.17.17.3 0 .11-.06.23-.17.28zm3.2-3.21c-.36-.44-1.03-.62-2.3-.62h-4.65c-1.3 0-1.99.2-2.35.66-.35.45-.35 1.12-.35 2.05v1.76c0 1.8.42 2.7 2.7 2.7h4.65c1.1 0 1.72-.15 2.12-.53.4-.4.58-1.05.58-2.17v-1.76c0-.98-.03-1.65-.4-2.1z"/></defs><g><g transform="translate(-417 -60)"><use fill="#10121a" xlink:href="#k7nna"/></g><g transform="translate(-417 -60)"><g><use fill="#fff" xlink:href="#k7nnb"/></g></g></g></svg>