<svg xmlns="http://www.w3.org/2000/svg" xmlns:xlink="http://www.w3.org/1999/xlink" width="190" height="111" viewBox="0 0 190 111"><defs><path id="lelba" d="M0 111V0h190v111z"/><path id="lelbb" d="M118.14 69.87a14.54 14.54 0 0 1-3.16 0l-.62-2.94c-.53-.11-1.05-.24-1.54-.41l-2.01 2.24a13.7 13.7 0 0 1-2.75-1.58l.94-2.86c-.4-.36-.77-.73-1.13-1.13l-2.85.94a14.67 14.67 0 0 1-1.58-2.74l2.23-2.01c-.17-.51-.32-1.02-.41-1.55l-2.93-.62a14.54 14.54 0 0 1 0-3.16l2.91-.6c.11-.52.25-1.05.42-1.54l-2.24-2.01c.41-.98.96-1.9 1.58-2.75l2.85.94c.36-.39.74-.77 1.13-1.12l-.94-2.86c.85-.62 1.77-1.15 2.75-1.58l2.01 2.24c.5-.17 1.01-.32 1.54-.42l.62-2.93a14.54 14.54 0 0 1 3.16 0l.62 2.88c.53.11 1.05.24 1.54.41l2.01-2.24c.98.42 1.9.96 2.75 1.58l-.94 2.86c.4.36.77.73 1.13 1.13l2.85-.94c.63.84 1.15 1.77 1.58 2.74l-2.23 2.01c.17.51.32 1.02.41 1.55l2.93.62a14.55 14.55 0 0 1 0 3.16l-2.93.62c-.11.52-.24 1.05-.41 1.54l2.23 2c-.4.99-.95 1.9-1.58 2.75l-2.85-.94c-.36.4-.74.78-1.13 1.13l.94 2.86c-.85.62-1.77 1.15-2.75 1.58l-2-2.24c-.52.17-1.02.32-1.55.42zm-1.6-4.38a9.86 9.86 0 0 0 0-19.7 9.86 9.86 0 0 0 0 19.7zm-8.82-9.86a8.82 8.82 0 1 1 17.64 0 8.82 8.82 0 0 1-17.64 0zm8.82 2.75a2.74 2.74 0 0 0 2.75-2.75 2.74 2.74 0 0 0-2.75-2.74 2.75 2.75 0 0 0 0 5.49zm-.96-2.76c0-.53.43-.96.96-.96s.96.43.96.96c0 .52-.43.95-.96.95a.95.95 0 0 1-.96-.95zm-7.16 35.42a13.23 13.23 0 0 1-2.48-.66l.13-2.43c-.38-.18-.75-.4-1.11-.64l-2.03 1.34a12.73 12.73 0 0 1-1.8-1.83l1.33-2.03c-.23-.35-.45-.71-.64-1.1l-2.43.13c-.3-.8-.52-1.64-.65-2.48l2.18-1.1a7.47 7.47 0 0 1 0-1.3l-2.18-1.08a13.23 13.23 0 0 1 .66-2.48l2.42.13c.19-.38.4-.76.64-1.11l-1.34-2.03c.55-.66 1.17-1.28 1.83-1.8l2.03 1.33c.36-.25.71-.45 1.1-.64l-.12-2.43c.8-.3 1.63-.52 2.48-.66l1.09 2.19c.43-.04.86-.04 1.3 0l1.09-2.19a13.23 13.23 0 0 1 2.48.66l-.13 2.43c.37.19.75.4 1.1.64l2.04-1.34c.65.55 1.27 1.17 1.8 1.83l-1.33 2.03c.24.35.45.71.64 1.1l2.42-.13c.3.81.53 1.64.66 2.49l-2.18 1.09c.04.43.04.86 0 1.3l2.18 1.08a13.24 13.24 0 0 1-.66 2.48l-2.42-.13c-.2.38-.4.76-.64 1.11l1.33 2.03c-.54.66-1.16 1.28-1.82 1.8l-2.03-1.33c-.36.25-.72.46-1.11.64l.13 2.43c-.8.3-1.64.52-2.48.66l-1.1-2.18c-.43.03-.86.03-1.3 0zm-.41-3.4a8.36 8.36 0 0 0 4.32-16.14 8.36 8.36 0 0 0-4.32 16.13zm-5.55-10.14a7.99 7.99 0 1 1 15.43 4.16 7.99 7.99 0 0 1-15.43-4.16zm5.85 8.97a7.15 7.15 0 1 0 3.7-13.83 7.15 7.15 0 0 0-3.7 13.83zm1.27-4.76a2.23 2.23 0 0 1 1.15-4.3 2.23 2.23 0 0 1-1.15 4.3zm.38-1.4c.41.1.83-.14.94-.55a.76.76 0 0 0-.54-.94.76.76 0 0 0-.94.54c-.12.41.13.85.54.94zM40.53 45.4h17.86v4.08L46.94 61.46h11.88v4.4H39.44v-4.23l11.33-11.82H40.53zm33.7 17.07h-7.2l-.99 3.36H59.6l7.67-20.43h6.88l7.7 20.43h-6.6zm-1.3-4.42l-2.26-7.35-2.24 7.35zm7.34-12.65h6.6l4.6 14.7 4.54-14.7h6.41l-7.58 20.43H88zm62.31 0c1.84 0 3.35.24 4.48.75a7.32 7.32 0 0 1 2.82 2.16 9.2 9.2 0 0 1 1.61 3.27c.34 1.24.51 2.56.51 3.97 0 2.18-.24 3.87-.75 5.07a8.26 8.26 0 0 1-2.07 3.03 6.95 6.95 0 0 1-2.84 1.64c-1.39.37-2.63.56-3.76.56h-9.38V45.41zm-3.06 4.64v-.02zm0 11.15h1.54c1.31 0 2.25-.15 2.82-.43.56-.29 1-.81 1.31-1.53.32-.73.47-1.91.47-3.55 0-2.16-.35-3.65-1.05-4.44-.71-.8-1.88-1.2-3.51-1.2h-1.58zm-61.2 18.78l2.72-.17c.06.43.17.77.36 1.02.3.37.72.56 1.26.56.41 0 .72-.1.94-.28a.85.85 0 0 0 .34-.66.8.8 0 0 0-.32-.64 3.4 3.4 0 0 0-1.47-.52 6.05 6.05 0 0 1-2.67-1.13 2.23 2.23 0 0 1-.8-1.79c0-.47.13-.92.4-1.35.3-.42.7-.75 1.25-1a5.76 5.76 0 0 1 2.27-.36c1.19 0 2.1.23 2.71.66.62.43 1 1.15 1.11 2.09l-2.69.15a1.47 1.47 0 0 0-.45-.9 1.44 1.44 0 0 0-.94-.28c-.34 0-.58.07-.75.2a.63.63 0 0 0-.24.5c0 .16.07.3.2.4.13.14.45.23.96.34 1.24.27 2.14.55 2.69.81.54.28.94.62 1.18 1.02.25.41.38.86.38 1.37a3.06 3.06 0 0 1-1.86 2.78c-.58.26-1.34.4-2.22.4-1.58 0-2.65-.3-3.27-.9a3.3 3.3 0 0 1-1.1-2.32zm9.83-6.17h2.86v3.24h3.12V73.8h2.88v9.25h-2.88v-3.74h-3.12v3.74h-2.86zm34.16 0h2.71l.98 5.17 1.43-5.17h2.7l1.43 5.17.98-5.17h2.7l-2.02 9.25h-2.8l-1.62-5.8-1.62 5.8h-2.8zm-45.5 9.24H39.44V73.8H76.8zm59.83-9.24H152v9.24h-15.36z"/></defs><g><g><use fill="#10121a" xlink:href="#lelba"/></g><g><use fill="#fff" xlink:href="#lelbb"/></g><g/></g></svg>